<svg xmlns="http://www.w3.org/2000/svg" viewBox="0 0 1200 520" width="1200" height="520"><style>.sv-s{font-family:Inter,'Helvetica Neue',Arial,sans-serif}.sv-d{font-family:Archivo,'Arial Black',Arial,sans-serif;font-weight:800}</style><defs><radialGradient id="gB" cx=".08" cy=".1" r=".8"><stop offset="0" stop-color="#8B5CF6" stop-opacity=".5"/><stop offset="1" stop-color="#8B5CF6" stop-opacity="0"/></radialGradient></defs><rect width="1200" height="520" fill="#0B0712"/><rect width="1200" height="520" fill="url(#gB)"/><rect width="1200" height="54" fill="#120C1C"/><circle cx="34" cy="27" r="6" fill="#EF4444"/><circle cx="54" cy="27" r="6" fill="#F59E0B"/><circle cx="74" cy="27" r="6" fill="#22C55E"/><text x="106" y="32" class="sv-s" font-size="15" fill="#8E86A6">leads / follow-up.flow</text><rect x="56" y="88" width="610" height="384" fill="#FFFFFF"/><g class="sv-s"><text x="84" y="128" font-size="18" font-weight="700" fill="#111">New message</text><line x1="84" y1="146" x2="638" y2="146" stroke="#EEE"/><text x="84" y="178" font-size="14" fill="#888">To</text><text x="150" y="178" font-size="15" fill="#111">priya@northwinddental.com</text><text x="84" y="212" font-size="14" fill="#888">Subject</text><text x="150" y="212" font-size="15" font-weight="600" fill="#111">Your Meta ads enquiry, Northwind Dental</text><line x1="84" y1="232" x2="638" y2="232" stroke="#EEE"/><text x="84" y="268" font-size="15" fill="#333">Hi Priya, thanks for reaching out about Meta ads for</text><text x="84" y="294" font-size="15" fill="#333">Northwind Dental. Based on your form, here are three</text><text x="84" y="320" font-size="15" fill="#333">quick ideas for your Invisalign campaign…</text><rect x="84" y="400" width="290" height="40" fill="#8B5CF6"/><text x="229" y="426" font-size="14" font-weight="700" fill="#fff" text-anchor="middle">Sent 18s after form submit</text><text x="728" y="116" font-size="12" font-weight="700" letter-spacing="3" fill="#A78BFA">FOLLOW-UP SEQUENCE</text></g><line x1="742" y1="158" x2="742" y2="364" stroke="#3B2A5E" stroke-width="2"/><circle cx="742" cy="158" r="11" fill="#8B5CF6"/><circle cx="742" cy="261" r="11" fill="#0B0712" stroke="#8B5CF6" stroke-width="2.5"/><circle cx="742" cy="364" r="11" fill="#0B0712" stroke="#8B5CF6" stroke-width="2.5"/><g class="sv-s"><text x="772" y="156" font-size="19" font-weight="700" fill="#fff">Day 0 · Personal email</text><text x="772" y="180" font-size="14" fill="#A0A0B8">Sent at 00:00:18</text><text x="772" y="259" font-size="19" font-weight="700" fill="#fff">Day 3 · Follow-up</text><text x="772" y="283" font-size="14" fill="#A0A0B8">Scheduled</text><text x="772" y="362" font-size="19" font-weight="700" fill="#fff">Day 7 · Breakup email</text><text x="772" y="386" font-size="14" fill="#A0A0B8">Scheduled</text></g><rect x="728" y="408" width="416" height="64" fill="#1A1D21" stroke="#2C3036"/><circle cx="756" cy="440" r="10" fill="#22C55E"/><g class="sv-s"><text x="778" y="434" font-size="15" font-weight="700" fill="#fff">#new-leads</text><text x="778" y="456" font-size="14" fill="#C9CFDC">Priya replied. Jump into the thread.</text></g></svg>